<?xml version="1.0" standalone="no"?>
<!DOCTYPE svg PUBLIC "-//W3C//DTD SVG 1.1//EN" "http://www.w3.org/Graphics/SVG/1.1/DTD/svg11.dtd" >
<svg xmlns="http://www.w3.org/2000/svg">
<metadata>
Created by FontForge 20120731 at Thu Aug 11 16:31:23 2016
 By admin
</metadata>
<defs>
<font id="iconfont" horiz-adv-x="1024" >
  <font-face 
    font-family="iconfont"
    font-weight="500"
    font-stretch="normal"
    units-per-em="1024"
    panose-1="2 0 6 3 0 0 0 0 0 0"
    ascent="896"
    descent="-128"
    x-height="792"
    bbox="-927 -171 1131 896"
    underline-thickness="50"
    underline-position="-100"
    unicode-range="U+0078-E63A"
  />
<missing-glyph horiz-adv-x="374" 
d="M34 0v682h272v-682h-272zM68 34h204v614h-204v-614z" />
    <glyph glyph-name=".notdef" horiz-adv-x="374" 
d="M34 0v682h272v-682h-272zM68 34h204v614h-204v-614z" />
    <glyph glyph-name=".null" horiz-adv-x="0" 
 />
    <glyph glyph-name="nonmarkingreturn" horiz-adv-x="341" 
 />
    <glyph glyph-name="x" unicode="x" horiz-adv-x="1001" 
d="M281 543q-27 -1 -53 -1h-83q-18 0 -36.5 -6t-32.5 -18.5t-23 -32t-9 -45.5v-76h912v41q0 16 -0.5 30t-0.5 18q0 13 -5 29t-17 29.5t-31.5 22.5t-49.5 9h-133v-97h-438v97zM955 310v-52q0 -23 0.5 -52t0.5 -58t-10.5 -47.5t-26 -30t-33 -16t-31.5 -4.5q-14 -1 -29.5 -0.5
t-29.5 0.5h-32l-45 128h-439l-44 -128h-29h-34q-20 0 -45 1q-25 0 -41 9.5t-25.5 23t-13.5 29.5t-4 30v167h911zM163 247q-12 0 -21 -8.5t-9 -21.5t9 -21.5t21 -8.5q13 0 22 8.5t9 21.5t-9 21.5t-22 8.5zM316 123q-8 -26 -14 -48q-5 -19 -10.5 -37t-7.5 -25t-3 -15t1 -14.5
t9.5 -10.5t21.5 -4h37h67h81h80h64h36q23 0 34 12t2 38q-5 13 -9.5 30.5t-9.5 34.5q-5 19 -11 39h-368zM336 498v228q0 11 2.5 23t10 21.5t20.5 15.5t34 6h188q31 0 51.5 -14.5t20.5 -52.5v-227h-327z" />
    <glyph glyph-name="uniE600" unicode="&#xe600;" 
d="M629 736l-298 -308l-43 -44l43 -44l298 -308l43 44l-299 308l299 308z" />
    <glyph glyph-name="uniE601" unicode="&#xe601;" 
d="M481.5 832q-97.5 0 -186 -37.5t-152.5 -101.5t-102 -153t-38 -186t38 -185.5t102 -152.5t152.5 -102t186 -38t186 38t152.5 102t102 152.5t38 185.5t-38 186t-102 153t-152.5 101.5t-186 37.5zM683 153q-10 -10 -24 -10t-24 10l-153 153l-154 -154q-10 -10 -24 -10
t-24 10t-10 24t10 24l153 154l-153 154q-10 10 -10 24t10 24t24 10t24 -10l153 -154l154 154q10 10 24 10t24 -10t10 -24t-10 -24l-153 -154l153 -153q10 -10 10 -24t-10 -24z" />
    <glyph glyph-name="uniE602" unicode="&#xe602;" 
d="M966 -79q-12 -19 -25 -26t-23 -3.5t-18 10t-12 12.5l-5 7q-28 144 -128.5 238t-241.5 94q-227 0 -325 -182q-41 -77 -47 -150q-40 -54 -76 -9l-7 9q0 128 77 234t200 152q-64 44 -101.5 113t-37.5 150q0 131 93 224t224.5 93t224.5 -93t93 -224q0 -83 -40 -154t-108 -114
q54 -20 98.5 -52t73 -66.5t50.5 -73t33 -70t18 -61t8.5 -42.5t1.5 -16zM748 570q0 97 -68.5 165.5t-166 68.5t-166 -68.5t-68.5 -165.5t68.5 -166t166 -69t166 69t68.5 166z" />
    <glyph glyph-name="uniE603" unicode="&#xe603;" 
d="M753 -128q-80 0 -211 81q-125 77 -244 193l-24 24q-116 119 -193 244q-81 131 -81 211q0 78 72 175q14 18 30 36t45 39t52 21q30 0 72 -44q31 -32 67 -83q34 -49 57 -92q27 -51 27 -76q0 -33 -34 -56q-15 -10 -49 -25q-30 -13 -37 -19q6 -24 42 -77q43 -63 93 -115
q52 -50 115 -93q53 -36 77 -42q6 7 19 37q15 34 25 49q23 34 56 34q25 0 76 -27q43 -23 92 -57q51 -36 83 -67q44 -42 44 -72q0 -23 -21 -52t-39 -45t-36 -30q-97 -72 -175 -72zM341 189q114 -111 232 -185q117 -72 180 -72q57 0 135 59q34 24 56 50q16 18 19 29
q-5 11 -32 36t-74 58q-43 30 -81 50q-33 17 -47 19q-4 -2 -9.5 -11.5t-16.5 -34.5q-13 -31 -21 -43q-20 -31 -49 -31h-1q-38 1 -114 53q-68 46 -123 100l-1 1q-54 55 -100 123q-52 76 -53 114q-1 29 30 50q13 8 44 21q25 11 34.5 16.5t11.5 9.5q-2 14 -19 47q-20 38 -50 81
q-33 47 -58 74t-36 32q-11 -3 -29 -19q-26 -22 -50 -56q-59 -78 -59 -135q0 -63 72 -180q74 -118 185 -232zM341 189z" />
    <glyph glyph-name="uniE604" unicode="&#xe604;" 
d="M957 683v1v0q-3 7 -9 12q-1 0 -2 1q-7 5 -14 5h-841q-6 0 -13 -5q-2 -1 -3 -1q-6 -5 -9 -12v0v-1q-2 -5 -2 -8v-578q0 -12 8 -19.5t19 -7.5h421h420q11 0 19 7.5t8 19.5v578q0 3 -2 8zM858 648l-251 -213v0l-95 -81l-347 294h693zM512 124h-394v492l242 -204l-152 -171
q-7 -8 -6.5 -19t9.5 -19q7 -7 18 -7q12 0 20 9l152 172l93 -79q8 -7 17.5 -7t17.5 7l93 79l152 -172q8 -9 21 -9q10 0 17 7q9 8 9.5 19t-6.5 19l-152 171l242 204v-492h-393z" />
    <glyph glyph-name="uniE605" unicode="&#xe605;" 
d="M810 95q0 -17 -12.5 -29.5t-29.5 -12.5h-576q-18 0 -30.5 12.5t-12.5 29.5v534q0 17 12.5 29.5t30.5 12.5h277v64h-320q-26 0 -45 -18.5t-19 -45.5v-618q0 -27 19 -45.5t45 -18.5h661q27 0 45.5 18.5t18.5 45.5v213h-64v-171zM930 619l-173 172q-9 9 -22 9t-22.5 -9
t-9.5 -22.5t9 -22.5l99 -99q-167 3 -308 -101.5t-196 -267.5l59 -29q32 96 106 176t174 123t199 32l-132 -132q-10 -9 -10 -22.5t9.5 -22.5t22.5 -9t23 9l167 167l2 2q2 1 3 1q9 10 9 23t-9 23z" />
    <glyph glyph-name="uniE606" unicode="&#xe606;" 
d="M736 164h-448q-10 0 -16.5 -6.5t-6.5 -16t6.5 -16t16.5 -6.5h448q10 0 16.5 6.5t6.5 16t-6.5 16t-16.5 6.5zM265 467q0 -9 6.5 -16t16.5 -7h448q10 0 16.5 7t6.5 16t-6.5 16t-16.5 7h-448q-10 0 -16.5 -7t-6.5 -16zM940 596l-280 278q-11 12 -27 12h-457q-43 0 -72 -30
q-31 -34 -31 -74v-796q0 -44 31 -73q30 -31 71 -31h672q42 0 71 30v1q31 29 31 73v582q3 13 -9 28zM656 770l178 -178h-137q-16 0 -29 12v1q-12 9 -12 28v137zM874 -14q0 -12 -8 -18q-7 -7 -18 -7h-672q-11 0 -18 7q-8 8 -8 18v796q0 12 8 18q8 8 18 8h434v-176
q0 -35 24 -60l1 -1q26 -27 61 -27h177v-558h1zM736 327h-448q-10 0 -16.5 -6.5t-6.5 -16t6.5 -16t16.5 -6.5h448q10 0 16.5 6.5t6.5 16t-6.5 16t-16.5 6.5z" />
    <glyph glyph-name="uniE607" unicode="&#xe607;" 
d="M741 664v100q0 27 -14.5 46.5t-34.5 19.5h-361q-20 0 -35 -19.5t-15 -46.5h1v-100h-202v-66h69v-600q0 -26 18.5 -45t44.5 -19h598v66h-597v598h597v-664q27 0 45.5 19t18.5 45v600h69v66h-202zM677 664h-332v100h332v-100zM478 498h67v-398h-67v398zM312 498h67v-398
h-67v398zM644 498h67v-398h-67v398z" />
    <glyph glyph-name="uniE608" unicode="&#xe608;" 
d="M512 871q-100 0 -191 -39t-156.5 -105t-104.5 -157t-39 -191t39 -191t104.5 -156.5t156.5 -104.5t191 -39t191 39t157 104.5t104.5 156.5t38.5 191t-38.5 191t-104.5 157t-157 105t-191 39zM512 798q114 0 210.5 -56t152.5 -152.5t56 -210.5q0 -125 -69 -229
q-79 116 -212 162q67 60 67 149q0 83 -58.5 141t-141 58t-141 -58t-58.5 -141q0 -87 64 -147q-138 -44 -220 -164q-68 104 -68 229q0 114 56 210.5t152 152.5t210 56zM392 461.5q0 52.5 37 89.5t89.5 37t89.5 -37t37 -89.5t-37 -89.5t-89.5 -37t-89.5 37t-37 89.5zM512 -39
q-87 0 -165.5 34t-136.5 94q46 77 123.5 123.5t169.5 49.5h14h12q90 -4 166 -49.5t121 -120.5q-58 -62 -137 -96.5t-167 -34.5z" />
    <glyph glyph-name="uniE609" unicode="&#xe609;" 
d="M939 462q-14 23 -37.5 36.5t-49.5 14.5l-213 1q21 62 21 127q0 33 -6 67l-4 18q-8 36 -37.5 59.5t-67.5 23.5q-44 0 -76 -31.5t-32 -76.5q0 -6 1 -9q-1 -38 -22 -78.5t-49.5 -69.5t-57 -48t-44.5 -19h-159q-15 0 -26 -11t-11 -27l-1 -442q0 -16 12 -26.5t29 -10.5h138
l5 -1l5 1l522 -1q28 2 51 17q26 17 36 39l7 11q16 38 37 131t30.5 146t13.5 82l1 10q3 36 -16 67zM133 413h85v-390h-85v390zM816 54l-4 -6q-6 -11 -16 -18q-10 -6 -19 -7l-495 1v392q32 6 69.5 32t70.5 63t56 86.5t24 97.5l-1 6q0 18 13 31t31 13q16 0 28 -9.5t15 -24.5
l4 -15q4 -27 4 -55q0 -55 -18 -106l-29 -85h291l7 -1q25 -1 38 -21q7 -13 6 -33q-48 -274 -75 -341z" />
    <glyph glyph-name="uniE60A" unicode="&#xe60a;" 
d="M511 -59q-89 0 -171 33.5t-145 96.5t-97 144t-34 170t34 170t97.5 144t145 96.5t171 33.5t171 -33.5t144.5 -96.5q86 -85 116 -199.5t0 -229t-116 -199.5q-63 -63 -145 -96.5t-171 -33.5v0v0zM511 771q-78 0 -149 -29.5t-126 -84t-84 -125t-29 -147.5t29 -147.5
t84 -125.5t126 -84t149 -29t149 29t126 84q74 74 100.5 173.5t0 199t-100.5 173.5q-55 54 -126 83.5t-149 29.5v0v0zM352 264q3 -4 7 -9.5t18.5 -19.5t31.5 -25t44.5 -20t57.5 -9t59 8.5t49 20.5t36 24.5t24 20.5l8 9q2 0 4.5 -0.5t9.5 -2.5t12 -6t9 -12.5t4 -20.5
q-2 -4 -7.5 -10.5t-25.5 -23t-42.5 -29.5t-60.5 -23.5t-79 -10.5t-76.5 10t-56 24.5t-35.5 28.5t-21 24l-6 10v5q0 3 2 10t5.5 12.5t11 10t17.5 4.5v0zM381 528q-22 0 -38 -16t-16 -38.5t16 -38.5t38.5 -16t38.5 16t16 38.5t-16 38.5t-39 16v0v0zM661 528q-22 0 -38 -16
t-16 -38.5t16 -38.5t38.5 -16t38.5 16t16 38.5t-16 38.5t-39 16v0v0zM661 528z" />
    <glyph glyph-name="uniE60B" unicode="&#xe60b;" 
d="M1005 477q22 -36 19 -79l-1 -13q-5 -33 -16.5 -98t-35.5 -177t-42 -158l-8 -12q-12 -27 -42 -47q-26 -18 -59 -20h-603l-5 -1l-6 1h-159q-20 0 -33.5 13t-13.5 31v534q0 18 13 31.5t31 13.5h182h1q19 0 51.5 23t65.5 58t57 84t25 93v12q0 54 36.5 92t87.5 38q44 0 78 -28
t44 -73l4 -20q7 -42 7 -81q0 -79 -25 -153l246 -2q30 -1 57 -17.5t44 -44.5zM173 419v-470l74 1v469h-74zM863 -13z" />
    <glyph glyph-name="uniE60C" unicode="&#xe60c;" 
d="M950 -36q0 6 -1.5 16t-8.5 40t-17.5 59t-31.5 67.5t-48.5 70.5t-70.5 63.5t-95 50.5q66 42 104.5 110.5t38.5 148.5q0 127 -90 216.5t-216.5 89.5t-216.5 -89.5t-90 -216.5q0 -78 36 -144.5t98 -109.5q-118 -44 -192.5 -146.5t-74.5 -225.5q2 -4 6 -9l-1 1q2 -4 9 -9
q5 -4 10 -7q25 -16 64.5 -29.5t135.5 -26t222 -12.5q181 1 276.5 21.5t132.5 46.5v1q6 4 10 7.5t5 5.5l1 1h-1q3 4 6 9zM570 673q0 12 8.5 20.5t20.5 8.5t20.5 -8.5t8.5 -20.5v-39q0 -12 -8.5 -20.5t-20.5 -8.5t-20.5 8.5t-8.5 20.5v39zM395 673q0 12 8.5 20.5t20.5 8.5
t20.5 -8.5t8.5 -20.5v-39q0 -12 -8.5 -20.5t-20.5 -8.5t-20.5 8.5t-8.5 20.5v39zM650 517q-52 -69 -138 -69q-85 0 -138 67q-5 7 -4 15t7.5 13t14.5 4t13 -8q40 -52 107 -52q66 0 107 53q5 7 13 8t14.5 -4t7.5 -13t-4 -14z" />
    <glyph glyph-name="uniE60D" unicode="&#xe60d;" horiz-adv-x="1155" 
d="M988 896h-574q-59 0 -101 -42t-42 -101v-29q0 -15 10.5 -25.5t25 -10.5t25 10.5t10.5 25.5q0 41 29.5 70.5t71.5 29.5h516q42 0 71 -29.5t29 -70.5v-230q0 -41 -29 -70.5t-71 -29.5q-15 0 -25 -10.5t-10 -25.5t10 -25.5t25 -10.5h29q59 0 101 42t42 102v287q0 59 -42 101
t-101 42zM812 258zM740 660h-573q-60 0 -102 -42t-42 -101v-287q0 -60 42 -102t102 -42h253l283 -207h1v-1h1l1 -1v0q1 0 1 -1h1h1q0 -1 1 -1t1 -1h1h1q1 0 2 -1h1h1h1l1 -1h1h1h2h1h1h1h1h1h1h1l1 1h1h1h1h1v1h1v0h1h1v1q1 0 2 1h1h1q0 1 1 1t1 1v0h1q0 1 0.5 1t0.5 1h1h1
v1l1 1h1v1h1q0 1 1 1v1l1 1v1h1v1h1v1l1 1v1v1h1v1q1 1 1 2v1l1 1v1v1v1l1 1v0v2v1v1v1v1v1v1v1v2v0v1v1l-30 172h10q60 0 102 42t42 102v287q0 59 -42 101t-102 42zM306.5 337q-14.5 0 -25 10.5t-10.5 25.5t10.5 25.5t25 10.5t25 -10.5t10.5 -25.5t-10.5 -25.5t-25 -10.5z
M450 337q-15 0 -25.5 10.5t-10.5 25.5t10.5 25.5t25.5 10.5t25.5 -10.5t10.5 -25.5t-10.5 -25.5t-25.5 -10.5zM593 337q-15 0 -25.5 10.5t-10.5 25.5t10.5 25.5t25.5 10.5t25.5 -10.5t10.5 -25.5t-10.5 -25.5t-25.5 -10.5z" />
    <glyph glyph-name="uniE60E" unicode="&#xe60e;" 
d="M455.5 91q-95.5 0 -177 47.5t-129 129t-47.5 177t47.5 177t129 129t177 47.5t177 -47.5t129 -129t47.5 -177t-47.5 -177t-129 -129t-177 -47.5zM455.5 711q-110.5 0 -188.5 -78t-78 -188.5t78 -188.5t188.5 -78t188.5 78t78 188.5t-78 188.5t-188.5 78zM868 -22
q-22 0 -38 16l-184 184q-16 16 -16 38t15.5 38t38 16t38.5 -16l184 -185q16 -15 16 -37.5t-16 -38t-38 -15.5z" />
    <glyph glyph-name="uniE60F" unicode="&#xe60f;" horiz-adv-x="1205" 
d="M602 -128q-104 0 -198.5 40.5t-163.5 109t-109.5 163.5t-40.5 199t40.5 199t109.5 163.5t163.5 109t198.5 40.5t199 -40.5t163.5 -109t109 -163.5t40.5 -199t-40.5 -199t-109 -163.5t-163.5 -109t-199 -40.5zM602 832q-91 0 -174 -35.5t-143 -95.5t-95.5 -143t-35.5 -174
t35.5 -174t95.5 -143t143 -95.5t174 -35.5t174 35.5t143 95.5t95.5 143t35.5 174t-35.5 174t-95.5 143t-143 95.5t-174 35.5zM648 384l135 -136q10 -9 10 -22.5t-9.5 -22.5t-23 -9t-22.5 9l-136 136l-136 -137q-9 -9 -22.5 -9t-23 9.5t-9.5 22.5t9 23l137 136l-136 136
q-9 9 -9 22.5t9.5 22.5t22.5 9t23 -9l135 -136l138 138q9 9 22.5 9t23 -9t9.5 -22.5t-10 -23.5zM648 384z" />
    <glyph glyph-name="uniE610" unicode="&#xe610;" 
d="M128 196h319v-68h-319v68zM128 320h192v-68h-192v68zM128 452h192v-68h-192v68zM894 706l2 2h-2q-9 27 -32 44.5t-52 17.5h-595q-36 0 -61.5 -25.5t-25.5 -61.5v-170h63v137l263 -262q25 -25 61 -25t62 25l256 257v-553q0 -10 -6.5 -17t-16.5 -7h-681v-63h681
q36 0 61.5 25t25.5 62v591q0 11 -3 23zM531 433q-6 -7 -16 -7t-16 7l-273 273h578z" />
    <glyph glyph-name="uniE611" unicode="&#xe611;" 
d="M868 827h-497q-52 0 -88 -36t-36 -88v-25q0 -13 9 -22t21.5 -9t22 9t9.5 22q0 36 25.5 61.5t61.5 25.5h447q36 0 61.5 -25.5t25.5 -61.5v-198q0 -36 -25.5 -61.5t-61.5 -25.5q-13 -1 -22 -10t-9 -21.5t9 -21.5t22 -9h25q51 0 87.5 36t36.5 88v248q0 52 -36.5 88t-87.5 36
zM247 375q0 -13 9 -22t21.5 -9t22 9t9.5 21.5t-9.5 22t-22 9.5t-21.5 -9.5t-9 -21.5zM371 375q0 -13 9 -22t22 -9t22 9t9 21.5t-9 22t-22 9.5t-22 -9.5t-9 -21.5zM495 375q0 -13 9 -22t22 -9t22 9t9 21.5t-9 22t-22 9.5t-22 -9.5t-9 -21.5zM653 623h-497q-51 0 -87.5 -36.5
t-36.5 -87.5v-249q0 -51 36.5 -87.5t87.5 -36.5h220l245 -179v-1h1q1 0 1 -0.5t1 -0.5h1v-1h1l1 -1h1q1 -1 2 -1h1h1l1 -1h1h1h2h1h1h1h1h1h2v0h1v0h1l1 1h1v0h1h1v1h1h1v1h1h1l1 1h1v1h1q1 0 1 0.5t1 0.5q0 1 1 1v0l1 1v1h1v1h1v1h1v1h1v1h1v1v1h1v1v1l1 1v1l1 1v1v1l1 1v0
v1v1v0v1v1v1h1v1v1v1v1v1h-1v1v1v1l-26 149h9q52 0 88 36.5t36 87.5v249q0 51 -36 87.5t-88 36.5zM715 275q0 -36 -25.5 -61.5t-61.5 -25.5h-21q-13 0 -22 -9t-9 -22q0 -4 1 -8l19 -107l-189 138q-2 2 -4 3q-8 5 -18 5h-204q-36 0 -61.5 25.5t-25.5 61.5v199q0 36 25.5 61.5
t61.5 25.5h447q36 0 61.5 -25.5t25.5 -61.5v-199z" />
    <glyph glyph-name="uniE612" unicode="&#xe612;" horiz-adv-x="1143" 
d="M572 -128q-104 0 -199 40.5t-163.5 109t-109 163.5t-40.5 199t40.5 199t109 163.5t163.5 109t199 40.5t199 -40.5t163.5 -109t109 -163.5t40.5 -199t-40.5 -199t-109 -163.5t-163.5 -109t-199 -40.5v0zM572 823q-89 0 -170 -35t-140 -94t-94 -140t-35 -170t35 -170
t94 -140t140 -94t170 -35t170 35t140 94t94 140t35 170t-35 170t-94 140t-140 94t-170 35v0zM572 823zM818 520q-11 10 -26 10t-26 -11l-267 -269l-118 121q-10 11 -25.5 11.5t-26 -10.5t-11 -26t10.5 -26l144 -148v0q2 -2 8 -5l2 -2q1 -1 2 -1q7 -3 14 -3t14 3q1 0 2 1t2 1
q6 4 8 6v0l293 296q11 11 10.5 26t-10.5 26v0zM818 520z" />
    <glyph glyph-name="uniE613" unicode="&#xe613;" horiz-adv-x="1217" 
d="M608 896q-104 0 -199 -40.5t-163.5 -109t-109 -163.5t-40.5 -199t40.5 -199t109 -163.5t163.5 -109t199 -40.5t199 40.5t163.5 109t109 163.5t40.5 199t-40.5 199t-109 163.5t-163.5 109t-199 40.5zM608 -59q-90 0 -172 35t-141.5 94.5t-94.5 141.5t-35 172t35 172
t94.5 141.5t141.5 94.5t172 35t172 -35t141 -94.5t94 -141.5t35 -172t-35 -172t-94 -141.5t-141 -94.5t-172 -35zM608 -59zM557 102q-20 20 -20 50t21 50.5t50 20.5t50 -20.5t21 -50.5t-20.5 -50.5t-50.5 -20.5t-51 21zM549 322q0 -25 16 -41.5t42 -16.5t42 16.5t16 41.5
v307q0 26 -16 42t-42 16q-25 0 -41.5 -16.5t-16.5 -41.5v-307zM549 322z" />
    <glyph glyph-name="uniE614" unicode="&#xe614;" 
d="M513 896q-104 0 -199 -40.5t-163.5 -109t-108.5 -163t-40 -199t40 -199t108.5 -163t163.5 -109t199 -40.5t198.5 40.5t163 109t109 163t40.5 199t-40.5 199t-109 163t-163 109t-198.5 40.5zM511.5 -72q-92.5 0 -176.5 36t-145 97t-97 145t-36 176.5t36 177t97 145.5
t145 97t176.5 36t177 -36t145 -97t96.5 -145.5t36 -177t-36 -176.5t-96.5 -145t-145 -97t-177 -36zM788 381q-5 17 -21.5 34.5t-48.5 32t-86 19.5q-47 4 -93 0v33q116 9 125 10q56 6 116 16q-4 6 -6 13q-4 8 -6 14q-3 7 -7 16q-5 13 -17 43q-64 -19 -125 -32t-124.5 -21
t-127.5 -12q-24 -1 -71.5 2t-66.5 3l16 -62q12 0 42 1.5t49 1.5q53 0 119 4v-51q-40 -9 -73 -20q-11 -4 -37 -10t-33 -8v31h-85v-228h85v143q10 5 39.5 12.5t37.5 10.5q32 10 66 20v-269h84v281q6 1 25 3l19 1q16 2 27 3q36 2 55 -8.5t26 -21.5q4 -6 5 -14.5t1 -13.5v-1
t1 -10q1 -20 -2 -59q-1 -14 -5.5 -23.5t-11 -13.5t-14 -5.5t-15.5 -0.5q-19 3 -42 15l-5 -42q11 -6 26 -12q14 -5 31.5 -10.5t40.5 -9.5q26 -4 43 2t27.5 19t16 30.5t7.5 37.5q2 18 2 38q-1 25 -2 33q-2 20 -7 35z" />
    <glyph glyph-name="uniE615" unicode="&#xe615;" 
d="M516 768zM512 822l-219 -219h-155q-30 0 -51.5 -21.5t-21.5 -51.5v-73v-146v-73q0 -30 21.5 -51.5t51.5 -21.5h155l219 -219q30 0 51.5 21.5t21.5 51.5v730q0 30 -21.5 51.5t-51.5 21.5zM248 233h-110v73v146v73h110v-292zM321 530l3 2l188 204v-714l-188 204l-3 2v302z
M688 564q-13 0 -22.5 9t-9.5 22.5t9 22.5l209 212q9 10 22 10t22.5 -9.5t10 -22.5t-9.5 -23l-209 -212q-9 -9 -22 -9zM898 -43q-13 0 -22 9l-212 209q-10 10 -10 23t9.5 22.5t22.5 9.5t23 -9l211 -209q10 -9 10 -22.5t-9 -22.5q-10 -10 -23 -10zM896 352h-224
q-13 0 -22.5 9.5t-9.5 22.5t9.5 22.5t22.5 9.5h224q13 0 22.5 -9.5t9.5 -22.5t-9.5 -22.5t-22.5 -9.5zM-927 702v0v0z" />
    <glyph glyph-name="uniE616" unicode="&#xe616;" 
d="M512 552q-70 0 -119 -49t-49 -119t49 -119t119 -49t119 49t49 119t-49 119t-119 49zM512 272q-46 0 -79 33t-33 79t33 79t79 33t79 -33t33 -79t-33 -79t-79 -33zM916 504q-25 5 -53 9q-5 14 -11 28q17 23 30 44q11 17 9 36.5t-16 33.5l-92 92q-16 16 -39 16q-17 0 -31 -9
q-21 -13 -44 -30q-14 6 -28 11q-4 29 -10 53q-4 19 -19 31.5t-35 12.5h-130q-20 0 -35 -12.5t-19 -31.5q-6 -24 -10 -53q-14 -5 -28 -11q-23 17 -44 30q-14 9 -31 9q-23 0 -39 -16l-92 -92q-14 -14 -16 -33.5t9 -36.5q13 -21 30 -44q-6 -14 -11 -28q-29 -4 -53 -10
q-19 -4 -31.5 -19t-12.5 -35v-130q0 -20 12.5 -35t31.5 -19q24 -6 53 -10q5 -14 11 -28q-17 -23 -30 -44q-11 -17 -9 -36.5t16 -33.5l92 -92q16 -16 39 -16q17 0 31 9q21 13 44 30q14 -6 28 -11q4 -29 10 -53q4 -19 19 -31.5t35 -12.5h130q20 0 35 12.5t19 31.5q6 24 10 53
q14 5 28 11q23 -16 44 -30q14 -9 31 -9q23 0 39 16l92 92q14 14 16 34t-9 36q-14 21 -30 44q6 14 11 28q28 4 53 9q19 5 31.5 20t12.5 35v130q0 20 -12.5 35t-31.5 20zM904 319q-38 -8 -84 -14q-11 -44 -34 -83q28 -37 49 -70l-91 -91q-33 21 -70 49q-39 -23 -83 -34
q-6 -47 -14 -84h-130q-8 37 -14 84q-44 11 -83 34q-38 -28 -70 -49l-91 91q21 32 49 70q-23 39 -34 83q-47 6 -84 14v130q37 8 84 14q11 44 34 83q-28 38 -49 70l91 91q32 -21 70 -49q39 23 83 34q6 47 14 84h130q8 -37 14 -84q44 -11 83 -34q38 28 70 49l91 -91
q-21 -32 -49 -70q23 -39 34 -83q46 -6 84 -14v-130z" />
    <glyph glyph-name="uniE617" unicode="&#xe617;" horiz-adv-x="1025" 
d="M307 -127h68h530q28 0 48 20t20 48v85q21 0 36 15t15 36v15v395q0 28 -20 48t-48 20h-268q6 174 -52 255q-15 21 -38.5 41t-39.5 29l-16 10q-28 10 -57.5 -3.5t-29.5 -41.5q1 -5 2 -14t1.5 -36t-2 -52t-10 -55.5t-20.5 -53.5q-27 -44 -68 -79h-290q-28 0 -48 -20t-20 -48
v-546q0 -28 20 -48t48 -20h222h17zM307 487v-546h-180q-24 0 -41.5 16t-17.5 39v436q0 23 17.5 39t41.5 16h180zM768 351q0 -15 10 -25t24 -10h154v-85h-154q-14 0 -24 -10t-10 -24t10 -24t24 -10h154v-68h-154q-14 0 -24 -10t-10 -24.5t10 -24.5t24 -10h103v-30
q0 -23 -17.5 -39t-42.5 -16h-470v546q8 5 49.5 44t46.5 48q23 33 35.5 84t14.5 85l2 35v11q-1 19 2.5 20.5t24.5 -5.5l4 -2q2 -4 6.5 -12t16 -34t19.5 -53.5t14 -69t4 -83.5q-1 -32 6 -47q7 -12 17 -16.5t37 -4.5h223q24 0 41.5 -16t17.5 -39v-47h-154q-14 0 -24 -10
t-10 -24zM154 77q0 -14 10 -24t24 -10t24 10t10 24.5t-10 24.5t-24 10t-24 -10t-10 -25zM154 77z" />
    <glyph glyph-name="uniE618" unicode="&#xe618;" horiz-adv-x="1000" 
d="M923 649q-2 10 -2 16q-102 3 -167 28q-17 6 -33.5 17.5t-25.5 19.5l-8 8q0 18 -13 30.5t-31 12.5h-262q-18 0 -31 -12.5t-13 -30.5q-27 -30 -63 -44q-28 -11 -73 -18.5t-68.5 -9t-30.5 -1.5q0 -7 -2 -18q-24 -11 -24 -38v-496q0 -17 12.5 -29.5t30.5 -12.5h787
q18 0 31 12.5t13 29.5v496q0 29 -27 40zM512.5 179q-90.5 0 -154.5 62.5t-64 150.5t64 150.5t154.5 62.5t154.5 -62.5t64 -150.5t-64 -150.5t-154.5 -62.5zM512.5 520q-54.5 0 -93 -37.5t-38.5 -90.5t38.5 -90.5t93 -37.5t92.5 37.5t38 90.5t-38 90.5t-92.5 37.5z" />
    <glyph glyph-name="uniE619" unicode="&#xe619;" 
d="M1001 -128h-140q-10 0 -16.5 7t-6.5 16.5t6.5 16.5t16.5 7h116v116q0 10 7 16.5t16.5 6.5t16.5 -6.5t7 -16.5v-140q0 -9 -7 -16t-16 -7zM1000.5 151q-9.5 0 -16.5 7t-7 17v139q0 10 7 16.5t16.5 6.5t16.5 -6.5t7 -16.5v-139q0 -10 -7 -17t-16.5 -7zM1000.5 431
q-9.5 0 -16.5 6.5t-7 16.5v139q0 10 7 17t16.5 7t16.5 -7t7 -17v-139q0 -10 -7 -16.5t-16.5 -6.5zM1000.5 710q-9.5 0 -16.5 6.5t-7 16.5v116h-116q-10 0 -16.5 7t-6.5 16.5t6.5 16.5t16.5 7h140q9 0 16 -7t7 -16v-140q0 -10 -7 -16.5t-16.5 -6.5zM721 -128h-139
q-10 0 -16.5 7t-6.5 16.5t6.5 16.5t16.5 7h139q10 0 17 -7t7 -16.5t-7 -16.5t-17 -7zM721 849h-139q-10 0 -16.5 7t-6.5 16.5t6.5 16.5t16.5 7h139q10 0 17 -7t7 -16.5t-7 -16.5t-17 -7zM695 431q20 0 33.5 -14t13.5 -33t-13.5 -33t-33.5 -14h-139v-139q0 -19 -14 -33
t-33 -14t-32.5 14t-13.5 33v139h-140q-19 0 -33 14t-14 33t14 33t33 14h140v139q0 19 13.5 33t32.5 14t33 -14t14 -33v-139h139zM442 849h-139q-10 0 -17 7t-7 16.5t7 16.5t17 7h139q10 0 16.5 -7t6.5 -16.5t-6.5 -16.5t-16.5 -7zM163 -128h-140q-9 0 -16 7t-7 16v140
q0 10 7 16.5t16.5 6.5t16.5 -6.5t7 -16.5v-116h116q10 0 16.5 -7t6.5 -16.5t-6.5 -16.5t-16.5 -7zM163 849h-116v-116q0 -10 -7 -16.5t-16.5 -6.5t-16.5 6.5t-7 16.5v140q0 9 7 16t16 7h140q10 0 16.5 -7t6.5 -16.5t-6.5 -16.5t-16.5 -7zM23.5 617q9.5 0 16.5 -7t7 -17v-139
q0 -10 -7 -16.5t-16.5 -6.5t-16.5 6.5t-7 16.5v139q0 10 7 17t16.5 7zM23.5 337q9.5 0 16.5 -6.5t7 -16.5v-139q0 -10 -7 -17t-16.5 -7t-16.5 7t-7 17v139q0 10 7 16.5t16.5 6.5zM303 -81h139q10 0 16.5 -7t6.5 -16.5t-6.5 -16.5t-16.5 -7h-139q-10 0 -17 7t-7 16.5t7 16.5
t17 7z" />
    <glyph glyph-name="uniE61A" unicode="&#xe61a;" horiz-adv-x="1025" 
d="M512 896q-104 0 -199 -40.5t-163.5 -109t-109 -163.5t-40.5 -199t40.5 -199t109 -163.5t163.5 -109t199 -40.5t199 40.5t163.5 109t109 163.5t40.5 199t-40.5 199t-109 163.5t-163.5 109t-199 40.5zM479 193q4 7 9 14l108 168q27 42 45 73q17 30 28 56t16 47q4 22 4 43
q0 20 -3 44q-3 25 -10 57l97 9q8 -15 12 -31q5 -15 7 -30q3 -14 4 -26.5t1 -22.5q0 -24 -6 -50t-20 -56q-14 -31 -36 -68.5t-55 -86.5l-207 -303l-100 -6l-57 580l-70 -2l-3 75q21 4 46 6l50 4q25 2 48.5 3t42.5 1l39 -477q0 -8 1 -16v-14z" />
    <glyph glyph-name="uniE61B" unicode="&#xe61b;" 
d="M523 796q-113 0 -209 -56t-152 -152t-56 -209t56 -209t152 -151.5t209 -55.5t209 55.5t152 151.5t56 209t-56 209t-152 152t-209 56zM523 7q-101 0 -187 50t-135.5 136t-49.5 186.5t49.5 186.5t135.5 135.5t187 49.5t186.5 -49.5t135.5 -135.5t50 -186.5t-50 -186.5
t-135.5 -136t-186.5 -50zM624 597l-67 -122q-26 -49 -32 -65h-1q-18 39 -99 187h-62l116 -198h-95v-44h111v-61h-111v-44h111v-89h55v89h108v44h-108v61h108v44h-92l116 198h-58z" />
    <glyph glyph-name="uniE61C" unicode="&#xe61c;" 
d="M512 0q159 0 271.5 112.5t112.5 271.5t-112.5 271.5t-271.5 112.5t-271.5 -112.5t-112.5 -271.5t112.5 -271.5t271.5 -112.5zM512 -64q-122 0 -225 60t-163 163t-60 225t60 225t163 163t225 60t225 -60t163 -163t60 -225t-60 -225t-163 -163t-225 -60zM480 512v-171
q0 -13 9.5 -22.5t22.5 -9.5h204q14 0 23 9.5t9 22.5t-9 22.5t-23 9.5h-204l32 -32v171q0 13 -9.5 22.5t-22.5 9.5t-22.5 -9.5t-9.5 -22.5z" />
    <glyph glyph-name="uniE61D" unicode="&#xe61d;" 
d="M880 -128h-736q-23 0 -43.5 20t-20.5 44v544q0 19 20.5 41.5t43.5 22.5h64v96q0 110 83.5 182.5t204.5 73.5q120 -1 204 -73t84 -183v-64h-64v64q0 91 -62 141t-162 51q-102 -1 -163 -51.5t-61 -140.5v-96h512h96q26 0 45 -18.5t19 -45.5v-544q0 -23 -21 -43.5t-43 -20.5
zM880 480h-736v-544h736v544zM528 416q66 0 113 -47t47 -113q0 -58 -36.5 -102t-91.5 -55v-99q0 -13 -9.5 -22.5t-22.5 -9.5t-22.5 9.5t-9.5 22.5v99q-55 11 -91.5 55t-36.5 102q0 66 47 113t113 47zM528 160q40 0 68 28t28 68t-28 68t-68 28t-68 -28t-28 -68t28 -68t68 -28
z" />
    <glyph glyph-name="uniE61E" unicode="&#xe61e;" 
d="M721 808h-437q-26 0 -44.5 -18.5t-18.5 -44.5v-722q0 -26 18.5 -44.5t44.5 -18.5h437q26 0 44.5 18.5t18.5 44.5v722q0 26 -18.5 44.5t-44.5 18.5zM302 751h400q12 0 20 -8.5t8 -20.5v-509h-456v509q0 12 8.5 20.5t19.5 8.5zM702 18h-400q-11 0 -19.5 8.5t-8.5 19.5v111
h456v-111q0 -11 -8 -19.5t-20 -8.5zM499 131q-18 0 -30.5 -12.5t-12.5 -30.5t12.5 -30.5t30.5 -12.5t30.5 12.5t12.5 30.5t-12.5 30.5t-30.5 12.5zM326 615v36h142v-36h-53q-14 -53 -28 -79h72v-211h-33v25h-42v-32h-35v150q-10 -14 -23 -31q-5 23 -11 49q45 62 59 129h-48z
M384 503v-124h42v124h-42zM474 392v37h144v-37h-144zM557 312q-1 8 -5 28q-1 8 -3 11h57q31 -1 31 25q3 42 5 97h-152l11 133h41l-10 -95h72l13 112h-132v38h175l-15 -150h37q-3 -102 -6 -141q0 -59 -64 -58h-55z" />
    <glyph glyph-name="uniE61F" unicode="&#xe61f;" 
d="M260 383q0 -21 14.5 -35.5t35 -14.5t35 14.5t14.5 35t-14.5 35t-35 14.5t-35 -14.5t-14.5 -34.5zM260 383zM523 432q20 0 34.5 -14.5t14.5 -35t-14.5 -35t-34.5 -14.5t-34.5 14.5t-14.5 35t14.5 35t34.5 14.5zM523 432zM687 383q0 -21 14.5 -35.5t35 -14.5t35 14.5
t14.5 35t-14.5 35t-35 14.5t-35 -14.5t-14.5 -34.5zM687 383zM512 -121q-102 0 -195.5 40t-160.5 107.5t-107 160.5t-40 195.5t40 195.5t107 160.5t160.5 107.5t195.5 40t195 -40t160.5 -107.5t107.5 -160.5t40 -195.5t-40 -195.5t-107.5 -160.5t-160.5 -107.5t-195 -40z
M512 833q-91 0 -174.5 -36t-144 -96t-96 -143.5t-35.5 -175t35.5 -175t96 -143.5t144 -96t174.5 -36t174.5 36t144 96t96 143.5t35.5 175t-35.5 175t-96 143.5t-144 96t-174.5 36zM512 833z" />
    <glyph glyph-name="uniE620" unicode="&#xe620;" 
d="M737 59q7 -11 3.5 -24.5t-15.5 -19.5q-12 -7 -24.5 -3.5t-19.5 15.5q-7 11 -3.5 24t14.5 20q12 7 25 3.5t20 -15.5zM545 -10q0 -13 -9.5 -23t-23.5 -10q-13 0 -23 9.5t-10 23.5v23q0 13 10 23t23 10q14 0 23.5 -10t9.5 -23v-23zM344 27q-7 -12 -20 -15.5t-25 3.5
q-12 6 -15.5 19.5t3.5 24.5l24 43q7 12 20 15.5t25 -3.5t15.5 -20t-3.5 -25zM188 159q-12 -7 -25.5 -3.5t-19.5 15.5q-7 11 -3.5 24.5t15.5 19.5l65 38q11 7 24.5 3.5t20.5 -15.5q6 -11 2.5 -24.5t-15.5 -20.5zM118 351q-13 0 -22.5 9.5t-9.5 23.5t9.5 23.5t22.5 9.5h102
q13 0 22.5 -9.5t9.5 -23.5t-9.5 -23.5t-22.5 -9.5h-102zM155 553q-12 6 -15.5 19.5t3.5 24.5q6 12 19.5 15.5t25.5 -3.5l110 -64q12 -6 15.5 -19t-3.5 -25t-20 -15.5t-25 3.5zM287 709l77 -134q7 -11 20 -14.5t25 2.5q11 7 14.5 20t-3.5 25l-77 133q-6 12 -19 15.5t-25 -3.5
q-12 -6 -15.5 -19.5t3.5 -24.5zM479 778q0 13 10 23t23 10q14 0 23.5 -10t9.5 -23v-154q0 -14 -9.5 -23.5t-23.5 -9.5t-23.5 9.5t-9.5 23.5v154zM681 741q7 12 20 15.5t24 -3.5q12 -6 15.5 -19t-3.5 -25l-77 -134q-6 -11 -19.5 -15t-25 3t-15 20.5t3.5 24.5zM837 609
l-134 -77q-11 -6 -14.5 -19.5t2.5 -24.5q7 -12 20 -15.5t25 3.5l134 77q11 6 14.5 19t-3.5 25q-6 12 -19 15.5t-25 -3.5zM906 417q13 0 22.5 -9.5t9.5 -23.5t-9.5 -23.5t-22.5 -9.5h-154q-14 0 -23.5 10t-9.5 23.5t9.5 23t23.5 9.5h154z" />
    <glyph glyph-name="uniE621" unicode="&#xe621;" 
d="M863 722q-94 95 -221 128.5t-254.5 0t-221.5 -128.5q-71 -70 -108 -162.5t-37 -186t37 -185.5t108 -163q94 -95 221.5 -128.5t254.5 0t221.5 128t128 222t0 254.5t-128.5 221zM806 502l-331 -352q-2 -2 -6 -5q-3 -2 -5 -3q-6 -2 -13 -2q-6 0 -12 2l-4 2q-5 3 -7 5v0l-1 1
l-188 185q-11 10 -11 24.5t10 24.5t24.5 10t24.5 -10l163 -161l306 326q10 10 24.5 10.5t24.5 -8.5q10 -10 10.5 -24.5t-9.5 -24.5zM806 502z" />
    <glyph glyph-name="uniE622" unicode="&#xe622;" 
d="M515 802q-114 0 -210 -56t-152 -152.5t-56 -210.5t56 -210.5t152 -152.5t210 -56t210.5 56t152.5 152.5t56 210.5t-56 210.5t-152.5 152.5t-210.5 56zM650 354h-270q-12 0 -20.5 8.5t-8.5 20.5t8.5 20.5t20.5 8.5h270q12 0 20.5 -8.5t8.5 -20.5t-8.5 -20.5t-20.5 -8.5z
" />
    <glyph glyph-name="uniE623" unicode="&#xe623;" 
d="M955 436h-393v388q0 23 -16.5 39.5t-39 16.5t-38.5 -16.5t-16 -39.5l-1 -388h-391q-23 0 -39 -16.5t-16 -38.5q0 -24 16 -42.5t39 -18.5l392 1l-1 -389q0 -23 16.5 -39t39 -16t38.5 16t16 39l1 389h391q23 0 39 16t16 39t-15.5 41.5t-37.5 18.5z" />
    <glyph glyph-name="uniE624" unicode="&#xe624;" 
d="M283 395zM201 395.5q0 33.5 24 57.5t58 24t58 -24t24 -57.5t-24 -57.5t-58 -24t-58 24t-24 57.5zM738 395zM657 395.5q0 33.5 24 57.5t57.5 24t57.5 -24t24 -57.5t-24 -57.5t-57.5 -24t-57.5 24t-24 57.5zM511 395zM429 395.5q0 33.5 24 57.5t58 24t58 -24t24 -57.5
t-24 -57.5t-58 -24t-58 24t-24 57.5z" />
    <glyph glyph-name="uniE625" unicode="&#xe625;" 
d="M856 39h-6h-43v72q0 82 -39 152.5t-106 111.5q67 41 106 111t39 152v91h44h5q14 0 23.5 9.5t9.5 24t-9.5 24.5t-23.5 10h-5h-677h-6q-13 0 -22.5 -10t-9.5 -24.5t9.5 -24t22.5 -9.5h6h47v-91q0 -82 39 -152t105 -111q-66 -41 -105 -111.5t-39 -152.5v-72h-48h-5
q-14 0 -23.5 -9.5t-9.5 -24t9.5 -24.5t23.5 -10h5h677h6q13 0 22.5 10t9.5 24.5t-9.5 24t-22.5 9.5zM741 39h-455v72q0 82 47.5 146t123.5 85q6 1 11 5h1l1 1l2 2q1 0 1 1l1 1l1 1q1 1 1 2l2 2v1h1v2h0.5t0.5 1q4 11 2 22q-3 11 -11 18h-1v1h-1q-5 4 -11 6q-76 20 -124 84.5
t-48 145.5v91h455v-91q0 -81 -48 -145.5t-124 -84.5q-12 -3 -18.5 -13.5t-5.5 -23.5v-1v-1v-1l1 -1v-2q0 -1 1 -2v-1q1 -1 1 -2q1 -3 3 -5q0 -1 1 -2v-1h1h1v-1h1q4 -5 10 -8h1q1 0 1 -1h1h1q76 -20 124 -84.5t48 -146.5v-72zM741 39z" />
    <glyph glyph-name="uniE626" unicode="&#xe626;" 
d="M575 774h-384q-26 0 -45 -19t-19 -45v-642q0 -26 19 -45t45 -19h384q26 0 45 19t19 45v642q0 26 -19 45t-45 19zM575 67h-384v642h384v-642zM255 577h102v-64h-102v64zM412 577h102v-64h-102v64zM255 448h102v-64h-102v64zM412 448h102v-64h-102v64zM255 320h102v-64
h-102v64zM412 320h102v-64h-102v64zM834 564h-259v-65h259v-432h-259v-63h259q26 0 45 19t19 45v432q0 27 -19 45.5t-45 18.5zM704 448h64v-64h-64v64zM704 319h64v-64h-64v64z" />
    <glyph glyph-name="uniE627" unicode="&#xe627;" 
d="M512 802q-113 0 -209.5 -56t-152.5 -152.5t-56 -209.5t56 -209.5t152.5 -152.5t209.5 -56t209.5 56t152.5 152.5t56 209.5t-56 209.5t-152.5 152.5t-209.5 56zM815 588q55 -80 61 -178h-208q-3 77 -14 141q85 12 161 37zM779 633q-65 -20 -135 -30q-16 72 -42 135
q103 -26 177 -105zM409 410q2 73 13 135q47 -4 90 -4t90 4q11 -62 13 -135h-206zM615 358q-2 -73 -13 -135q-47 4 -90 4t-90 -4q-11 62 -13 135h206zM487 748q19 1 25 1t25 -1q34 -69 54 -152q-42 -4 -79 -4t-79 4q20 83 54 152zM422 738q-26 -63 -42 -135q-70 10 -135 30
q74 79 177 105zM209 588q76 -25 161 -37q-11 -64 -14 -141h-208q6 98 61 178zM209 180q-55 80 -61 178h208q3 -77 14 -141q-86 -12 -161 -37zM245 135q64 20 135 30q16 -72 42 -135q-103 26 -177 105zM537 20q-18 -1 -25 -1t-25 1q-34 69 -54 152q42 4 79 4t79 -4
q-20 -83 -54 -152zM602 30q26 63 42 135q71 -10 135 -30q-74 -79 -177 -105zM815 180q-75 25 -161 37q11 64 14 141h208q-6 -98 -61 -178z" />
    <glyph glyph-name="uniE628" unicode="&#xe628;" 
d="M1024 538l-218 217h-217v64q0 26 -26 51.5t-51 25.5h-154q-24 0 -44 -25t-20 -52v-64h-230q-24 0 -44 -24.5t-20 -52.5v-294q0 -27 20 -52t44 -25h230v-358q0 -26 26 -51.5t51 -25.5h141q25 0 51 25.5t26 51.5v358h217zM371 819h141v-64h-141v64zM512 -51h-141v358h141
v-358zM64 384v294h717l141 -140l-141 -154h-717z" />
    <glyph glyph-name="uniE629" unicode="&#xe629;" 
d="M288 733q-30 0 -51.5 -21.5t-21.5 -51.5v-552q0 -30 21.5 -51.5t51.5 -21.5h521v698h-521zM378 697h143v-222q0 -4 -3.5 -5.5t-6.5 1.5l-31 33q-12 13 -30 13t-30 -13l-32 -33q-2 -3 -6 -1.5t-4 5.5v222zM773 71h-485q-16 0 -26.5 10.5t-10.5 26.5v552q0 16 10.5 26.5
t26.5 10.5h55v-222q0 -28 26 -38.5t45 9.5l32 34q1 2 4 2q2 0 4 -2l32 -34q12 -12 30 -12q7 0 15 2q26 11 26 39v222h216v-626zM773 71z" />
    <glyph glyph-name="uniE62A" unicode="&#xe62a;" 
d="M506 827q-120 0 -220.5 -58.5t-158.5 -160t-58 -223t58 -223t158.5 -160t220.5 -58.5t221 58.5t159 160t58 223t-58 223t-159 160t-221 58.5zM506.5 -6q-104.5 0 -194 52.5t-141.5 143t-52 196t52 195.5t141.5 143t194 53t193.5 -53t141.5 -143t52.5 -195.5t-52.5 -196
t-141.5 -143t-193.5 -52.5zM750 556h-469q-9 0 -17 -8t-8 -17.5t8 -17.5t17 -8h469q9 0 17 8t8 17.5t-8 17.5t-17 8zM750 411h-469q-9 0 -17 -8t-8 -17.5t8 -17.5t17 -8h469q9 0 17 8t8 17.5t-8 17.5t-17 8zM750 272h-469q-9 0 -17 -8t-8 -17.5t8 -17.5t17 -8h469q9 0 17 8
t8 17.5t-8 17.5t-17 8z" />
    <glyph glyph-name="uniE62B" unicode="&#xe62b;" 
d="M952 110h-880q-28 0 -48 20t-20 48v578q0 28 20 48.5t48 20.5h880q29 0 49 -20.5t20 -48.5v-578q0 -28 -20 -48t-49 -20zM72 784q-11 0 -19 -8.5t-8 -19.5v-578q0 -11 8 -19t19 -8h880q12 0 20 8t8 19v578q0 11 -8 19.5t-20 8.5h-880zM461 127h103v-202h-103v202z
M696 -94h-367v22q0 26 18 43.5t43 17.5h245q25 0 43 -17.5t18 -43.5v-22zM27 279h968v-41h-968v41zM513 192zM485 192.5q0 11.5 8 20t20 8.5t20.5 -8.5t8.5 -20t-8.5 -20t-20.5 -8.5t-20 8.5t-8 20z" />
    <glyph glyph-name="uniE62C" unicode="&#xe62c;" 
d="M680 0l-90 93h-452q-36 0 -61.5 25.5t-25.5 61.5v501q0 36 25.5 61.5t61.5 25.5h748q36 0 61.5 -25.5t25.5 -61.5v-501q0 -36 -25.5 -61.5t-61.5 -25.5h-110zM138 733q-22 0 -37.5 -15t-15.5 -37v-501q0 -22 15.5 -37t37.5 -15h467l76 -79l82 79h123q22 0 37.5 15
t15.5 37v501q0 22 -15.5 37t-37.5 15h-748v0zM138 733zM321 225l163 425h60l174 -425h-64l-49 128h-178l-47 -128h-59zM443 399h144l-44 118q-20 54 -30 88q-8 -41 -23 -81zM443 399z" />
    <glyph glyph-name="uniE62D" unicode="&#xe62d;" 
d="M510 305q77 0 131.5 54.5t54.5 131.5t-54.5 131.5t-131.5 54.5t-131.5 -54.5t-54.5 -131.5t54.5 -131.5t131.5 -54.5zM510 624q55 0 94 -39t39 -94t-39 -94t-94 -39t-94 39t-39 94t39 94t94 39zM766 275q44 52 64.5 118.5t12.5 138.5q-14 114 -97 196.5t-198 95.5
q-74 8 -143 -15t-119.5 -68.5t-80.5 -111t-30 -138.5q0 -124 81 -218l-105 -192q-3 -5 0 -10.5t9 -5.5h124q11 0 18 -9l72 -112q4 -5 10 -4.5t9 5.5l119 208l119 -208q3 -5 9 -5.5t9 4.5l73 112q6 9 18 9h123q6 0 9.5 5.5t0.5 10.5zM473 771q68 8 130.5 -14.5t106 -66
t66 -106t14.5 -130.5q-12 -94 -80.5 -162.5t-162.5 -80.5q-68 -8 -130.5 14.5t-106 66t-66 106t-13.5 130.5q12 94 80 162.5t162 80.5zM376 39l-46 70q-6 10 -17 10h-69q-4 0 -6 3t0 7l58 105q70 -59 159 -73l-70 -122q-1 -3 -4 -3t-5 3zM693 109l-46 -70q-1 -3 -4 -3t-4 3
l-70 122q89 16 158 75l60 -110q2 -2 0.5 -4.5t-4.5 -2.5h-72q-11 0 -18 -10z" />
    <glyph glyph-name="uniE62E" unicode="&#xe62e;" 
d="M719 -61h-416q-46 0 -78.5 32.5t-32.5 79.5v671q0 46 32.5 79t78.5 33h416q46 0 78.5 -33t32.5 -79v-671q0 -47 -32.5 -79.5t-78.5 -32.5zM775 722q0 23 -16.5 39.5t-39.5 16.5h-416q-23 0 -39 -16.5t-16 -39.5v-28h527v28zM775 638h-527v-447h527v447zM775 135h-527v-84
q0 -24 16 -40t39 -16h416q23 0 39.5 16t16.5 40v84zM511 23q-17 0 -29.5 12t-12.5 29.5t12.5 30t29.5 12.5t29.5 -12.5t12.5 -30t-12.5 -29.5t-29.5 -12z" />
    <glyph glyph-name="uniE62F" unicode="&#xe62f;" 
d="M226 771q81 81 189.5 109.5t216.5 0t189 -109.5q80 -80 99.5 -190t-18 -217t-119.5 -190l-259 -298l-260 298q-82 83 -119.5 190t-18 217t99.5 190zM524 -16l205 244q67 68 99.5 155.5t18 177.5t-79.5 155q-66 67 -154.5 90.5t-177.5 0t-155 -90.5q-65 -65 -79.5 -155
t18 -177.5t99.5 -155.5zM523.5 703q-79.5 0 -135.5 -56.5t-56 -136t56 -135.5t135.5 -56t135.5 56t56 135.5t-56 136t-135.5 56.5zM523.5 396q-47.5 0 -81 33.5t-33.5 81t33.5 81.5t81 34t81 -34t33.5 -81.5t-33.5 -81t-81 -33.5z" />
    <glyph glyph-name="uniE630" unicode="&#xe630;" 
d="M941 590q-2 -9 -3 -10q-12 -48 -60 -60q-23 -6 -66 -15q-6 -1 -6 -7q1 -15 0.5 -107.5t0.5 -107.5q0 -50 -40 -82q-28 -23 -76 -37q-43 -13 -101 -18q-57 -5 -117 -2q-90 3 -149 23q-46 15 -72 38q-35 31 -35 76v217q0 6 -5 7q-33 7 -66 15q-25 6 -42 24t-20 44v1l-1 1
v16q1 2 1 3q4 25 20 43t40 24q40 9 309 72q8 2 25.5 5.5t25.5 5.5h15q2 0 6 -1t6 -1q38 -9 159 -37t187 -43q48 -11 61 -60q1 -2 1.5 -5.5t1.5 -5.5v-16zM753 491l-1 -1h-3q-31 -7 -101.5 -23.5t-108.5 -24.5q-26 -7 -44 -3q-139 32 -209 48q-3 1 -16 4v-6v-201
q0 -18 14 -31q7 -6 11 -9q23 -16 61 -28q49 -15 113 -19q90 -5 164 10q51 11 86 31q18 10 28 22q6 9 6 20v205v6zM511 491q1 0 3.5 0.5t4.5 0.5q44 10 133 30.5t133 30.5q13 3 39.5 9.5t40.5 9.5q17 4 21 20q3 12 -3 21t-20 13q-58 13 -172.5 39.5t-169.5 39.5q-9 2 -18 0
l-141 -33q-134 -31 -202 -47q-23 -5 -23 -27q0 -21 23 -26q108 -24 323 -75zM881 9q-5 1 -9 2q-19 6 -29.5 22t-8.5 36q5 39 22 72q7 12 16 22q15 15 30 -1q10 -10 17 -23q16 -30 21 -67q0 -1 1 -3v-13q-1 -2 -1 -3q-7 -32 -38 -42q-1 0 -4 -1l-4 -1h-13zM861 344v120
q0 10 6.5 18t16.5 9q12 1 20.5 -6.5t9.5 -18.5v-3v-239q0 -14 -11 -22.5t-25 -3.5q-17 6 -17 26v120z" />
    <glyph glyph-name="uniE631" unicode="&#xe631;" 
d="M857 450l-568 1q0 8 -0.5 40.5t-0.5 49t2.5 47t7 50t13.5 42t23 38.5q19 22 31 33.5t33.5 27t49.5 22t64 6.5q70 2 131.5 -49.5t91.5 -128.5q9 -23 18.5 -33.5t25.5 -11.5q21 0 33.5 9.5t15.5 24.5t1.5 29.5t-5.5 25.5q-87 223 -312 223q-79 0 -128 -19.5t-95 -69.5
q-22 -25 -39 -56.5t-25.5 -63t-14.5 -65.5t-7.5 -64t-2.5 -58.5t0 -48.5l-33 -1q-23 0 -39.5 -16.5t-16.5 -38.5v-468q0 -23 16.5 -39t39.5 -16h690q23 0 39.5 16t16.5 39v468q0 22 -16.5 38.5t-39.5 16.5v0zM825 6q0 -19 -13 -32t-32 -13h-535q-18 0 -31 13q-13 14 -13 32
v312q0 19 13 32t31 13h535q19 0 32 -13t13 -32v-312zM825 6z" />
    <glyph glyph-name="uniE632" unicode="&#xe632;" 
d="M573 354h-101v-81h101v81zM613 697h-202v-61h202v61zM734 354h-101v-81h101v81zM673.5 576q16.5 0 28.5 12t12 28v101q0 17 -12 29t-28.5 12t-28.5 -12t-12 -29v-101q0 -16 12 -28t28.5 -12zM734 475h-101v-81h101v81zM472 152h101v81h-101v-81zM573 475h-101v-81h101v81
zM290 152h101v81h-101v-81zM815 697h-81v-61h61q17 0 28.5 -11.5t11.5 -28.5v-505q0 -17 -11.5 -28.5t-28.5 -11.5h-566q-17 0 -28.5 11.5t-11.5 28.5v505q0 17 11.5 28.5t28.5 11.5h61v61h-81q-33 0 -57 -23.5t-24 -57.5v-545q0 -34 24 -57.5t57 -23.5h606q33 0 57 23.5
t24 57.5v545q0 34 -24 57.5t-57 23.5zM391 475h-101v-81h101v81zM350.5 576q16.5 0 28.5 12t12 28v101q0 17 -12 29t-28.5 12t-28.5 -12t-12 -29v-101q0 -16 12 -28t28.5 -12zM391 354h-101v-81h101v81zM734 233h-101v-81h101v81z" />
    <glyph glyph-name="uniE633" unicode="&#xe633;" 
d="M336 572q-29 9 -54 -16q-18 -18 -16.5 -43t21.5 -46l84 84q-18 16 -35 21zM0 896v-1024l1024 1024h-1024zM296 290l-101 101q-14 14 -28 19q-21 8 -39 -10q-10 -9 -14 -17q-7 -13 -5 -31q1 -15 7.5 -25t22.5 -26l84 -84l-26 -26l-160 160l25 25l22 -23q-3 25 3 43t21 33
q33 33 68 21q20 -7 44 -31l102 -103zM444 432q-7 -12 -19 -24q-29 -28 -70 -26t-80 41q-39 38 -43 82t28 76q16 16 39.5 23.5t43.5 2.5q20 -4 39 -18q13 -9 37 -33l-111 -111q25 -24 50 -28.5t46 17.5q20 20 18 45q-1 15 -9 29l25 25q8 -10 13 -26q5 -17 5 -31
q1 -23 -12 -44zM578 573l-27 -27l-204 115l28 28l156 -96l-96 156l29 29l155 -95l-94 156l26 26l115 -204l-27 -27l-154 92z" />
    <glyph glyph-name="uniE634" unicode="&#xe634;" 
d="M180 70l-25 -24l-18 18l25 25zM149 101l-24 -24l-19 18l25 24zM168 156l36 37l49 -49l-36 -37zM190 11q3 4 10.5 14.5t9.5 15.5l-18 17l-24 -24zM774 873l-753 -754q-16 -15 -16 -36.5t16 -36.5l134 -135q16 -15 37.5 -15t36.5 15l753 753q15 16 15 37.5t-15 36.5
l-135 135q-15 15 -36.5 15t-36.5 -15zM689 723q15 -4 29 -8l-5 -15q-14 5 -29 8zM676 664l73 74l13 -12l-74 -74zM743 697q19 -1 44 -3l-1 -15q-20 2 -45 4zM713 668l15 3q6 -29 9 -57q-6 0 -15 -2q-3 24 -9 56zM298 332q2 0 37 -5l-3 -19l50 50l6 -6l-104 -104l-6 6l54 54
q-8 3 -13 4.5t-13.5 1.5t-9.5 1zM402 217l-9 -16q-44 26 -82 43l8 14q35 -16 83 -41zM143 156l61 61l80 -79l-12 -12l-12 12l-37 -37l12 -12l-12 -12zM253 9l-6 -6l-26 27q-4 -7 -15.5 -24.5t-16.5 -26.5l-15 7l6 10l-86 87l-6 -7l-12 13l61 61l12 -12l-12 -12l76 -77
q3 4 10 15q2 -2 5.5 -6t4.5 -6q-8 -12 -9 -14zM274 25q-9 -1 -16 -4q-5 34 -17 66l16 5q11 -36 17 -67zM337 88q-34 10 -67 17l4 16q31 -6 67 -17zM388 132l-12 -13l-85 85q1 -8 4.5 -20t4.5 -18q-3 1 -19 8q-11 51 -39 100l16 11q3 -6 7 -16t7.5 -17.5t8.5 -12.5zM486 254
l-104 -104l-6 6l56 56q-15 33 -56 104l17 9q4 -7 12 -24.5t18 -36.5t21 -40l36 36zM612 410q11 -19 -9 -39l-76 -76q-23 -23 -42 -3l-72 72l12 13l18 -19l86 86l-37 37l-104 -104l-12 12l116 116l68 -67l-13 -12l-6 6l-86 -86l39 -39q11 -10 24 3l70 71q13 12 8 22
q-6 11 -19 27q5 2 16 8q13 -16 19 -28zM779 531q-65 -31 -114 -9q22 -44 -9 -118q-1 0 -8.5 1.5t-12.5 1.5q36 72 11 117l-62 -62l-6 6l64 64q-7 9 -30 32l-37 -38q0 -3 3 -16t4 -20q-9 -1 -16 -2q-4 38 -24 74l14 8q6 -11 12 -26l33 33l-31 31l12 12q25 -25 30 -31l52 51
l12 -12l-52 -52q7 -7 16.5 -17t13.5 -15l65 65l6 -6l-64 -64q51 -23 114 14q1 -4 2.5 -11.5t1.5 -10.5zM802 618q4 -35 -3 -69q-7 2 -17 2q9 34 4 68q-22 1 -42 1l1 14q20 1 38 1q-4 17 -12 33l16 5q8 -20 12 -38q16 0 41 -1l-2 -18q-19 1 -36 2zM930 679q-30 -6 -58 -2
q3 -30 -4 -62q-8 1 -17 1q7 36 3 65q-34 10 -65 34l4 -18q-8 1 -17 2q-6 39 -33 77l14 9q15 -23 19 -33l47 47l12 -12l-11 -11q37 -46 46 -82q26 -5 57 4q1 -3 2 -9.5t1 -9.5zM785 737q35 -30 68 -41q-10 34 -40 68z" />
    <glyph glyph-name="uniE635" unicode="&#xe635;" 
d="M857 487q-6 -6 -18 -19.5t-17 -20.5q-37 32 -80 55l39 39q40 -23 76 -54zM748 361q-8 -9 -34 -40q-43 37 -97 56l41 41q49 -22 90 -57zM640 235q-74 -87 -128 -150q-13 15 -27 32t-32 37.5t-27 31.5l96 96q67 -4 118 -47zM507 448l-60 -59q-77 -17 -137 -68
q-33 38 -34 40q100 86 231 87zM654 595l-44 -43q-108 23 -216 -5t-192 -100q-6 7 -17.5 20.5t-17.5 19.5q101 87 230.5 115.5t256.5 -7.5zM828 648l-556 -556l-30 30l556 556z" />
    <glyph glyph-name="uniE636" unicode="&#xe636;" 
d="M863 640h-118v45q0 43 -30 73t-73 30h-260q-43 0 -73 -30t-30 -73v-45h-118q-43 0 -73 -30.5t-30 -72.5v-453q0 -43 30 -73t73 -30h702q43 0 73 30t30 73v453q0 42 -30 72.5t-73 30.5zM340 685q0 17 12.5 29.5t29.5 12.5h260q17 0 29.5 -12.5t12.5 -29.5v-45h-344v45z
M161 578h702q17 0 29.5 -12t12.5 -29v-173h-125q0 18 -13.5 31t-31.5 13q-19 0 -32 -13t-14 -31h-354q-1 18 -14 31t-32 13q-18 0 -31.5 -13t-13.5 -31h-125v173q0 17 12.5 29t29.5 12zM863 42h-702q-17 0 -29.5 12.5t-12.5 29.5v218h125v-44q0 -19 13.5 -32.5t31.5 -13.5
q19 0 32.5 13.5t13.5 32.5v44h354v-44q0 -19 13.5 -32.5t32.5 -13.5q18 0 31.5 13.5t13.5 32.5v44h125v-218q0 -17 -12.5 -29.5t-29.5 -12.5z" />
    <glyph glyph-name="uniE637" unicode="&#xe637;" 
d="M512 864q130 0 240.5 -64.5t175 -175t64.5 -240.5t-64.5 -240.5t-175 -175t-240.5 -64.5t-240.5 64.5t-175 175t-64.5 240.5t64.5 240.5t175 175t240.5 64.5zM512 896q-139 0 -257 -68.5t-186.5 -186.5t-68.5 -257t68.5 -257t186.5 -186.5t257 -68.5t257 68.5
t186.5 186.5t68.5 257t-68.5 257t-186.5 186.5t-257 68.5z" />
    <glyph glyph-name="uniE638" unicode="&#xe638;" 
d="M337 240q-1 -2 -1 -3l-48 -175q-5 -17 7 -29q9 -9 21 -9q4 0 8 1l175 48v0q3 0 6 2l466 466q21 21 21 53q0 37 -27 64l-44 44q-27 27 -64 27q-32 0 -53 -21l-466 -466v-2h-1zM925 586l-46 -46l-75 76l45 46q6 6 15 5t15 -7l44 -44q7 -7 7 -17q0 -8 -5 -13zM420 233
l336 336l75 -76l-335 -336zM359 96l24 90l65 -65zM955 402q-14 0 -23 -9.5t-10 -22.5v-435q0 -17 -12 -29t-29 -12h-735q-17 0 -29 12t-12 29v709q0 17 12 29.5t29 12.5h474q13 0 22.5 9t9.5 22.5t-9.5 23t-22.5 9.5h-479q-41 0 -71 -29.5t-30 -71.5v-719q0 -42 30 -71.5
t71 -29.5h745q42 0 71.5 29.5t29.5 71.5v440q0 13 -9.5 22.5t-22.5 9.5z" />
    <glyph glyph-name="uniE639" unicode="&#xe639;" 
d="M513 542q-1 2 -1 6t1 16.5t3.5 25t9 30t15.5 32.5t25.5 31t37 28.5t50 22.5t65.5 14q1 -2 1 -6.5t-1 -17.5t-4 -26t-9.5 -31t-16 -33.5t-25.5 -31.5t-36 -28t-50 -21t-65 -11zM517 433l-78 25q-4 1 -12.5 3.5t-33 5.5t-48 0t-54 -18t-54.5 -42q-115 -125 -43 -325
q21 -58 49 -108t67 -85.5t78 -36.5q28 -1 68 16.5t87 16.5q31 -4 77 -20q26 -10 45.5 -11.5t42.5 7.5t46 33q31 31 56.5 75.5t36 71t10.5 28.5q-4 2 -12 5.5t-27.5 17.5t-34.5 31.5t-27 47.5t-11 65t10.5 64t23 45t26.5 27t22 15l9 4q-1 1 -2.5 3.5t-7.5 10t-13 14t-18 15.5
t-23 16t-29 13t-35 8.5t-41 1.5t-47 -7z" />
    <glyph glyph-name="uniE63A" unicode="&#xe63a;" 
d="M244 137q0 -25 18 -43.5t43 -18.5h43q-2 -8 -2 -16v-125q0 -25 17 -42t40.5 -17t40.5 17t17 42v125q0 8 -2 16h106q-2 -8 -2 -16v-125q0 -25 17 -42t40.5 -17t40.5 17t17 42v125q0 8 -2 16h43q25 0 43 18.5t18 43.5v434h-536v-434zM148 571q-23 0 -40 -17.5t-17 -41.5
v-253q0 -24 17 -41.5t40.5 -17.5t40.5 17.5t17 41.5v253q0 24 -17 41.5t-41 17.5zM876 571q-24 0 -41 -17.5t-17 -41.5v-253q0 -24 17 -41.5t40.5 -17.5t40.5 17.5t17 41.5v253q0 24 -17 41.5t-40 17.5zM644 807l45 70q5 8 -3 13.5t-13 -2.5l-25 -39l-11 -17l-11 -17
q-54 22 -114 22t-114 -22l-21 34l-26 39q-5 8 -13 2.5t-3 -13.5l45 -70q-62 -29 -99 -82t-37 -115h536q0 62 -37 115t-99 82zM397 689q-12 0 -20 8.5t-8 21t8 21t20 8.5t20.5 -8.5t8.5 -21t-8.5 -21t-20.5 -8.5zM627 689q-12 0 -20.5 8.5t-8.5 21t8.5 21t20.5 8.5t20.5 -8.5
t8.5 -21t-8.5 -21t-20.5 -8.5zM627 689zM246 138q0 -26 18 -44.5t43 -18.5h44q-3 -8 -3 -16v-125q0 -24 17 -41.5t41 -17.5t40.5 17.5t16.5 41.5v125q0 8 -2 16h106q-2 -8 -2 -16v-125q0 -24 17 -41.5t40.5 -17.5t40.5 17.5t17 41.5v125q0 8 -2 16h43q26 0 43.5 18.5
t17.5 44.5v433h-536v-433zM151 571q-24 0 -41 -17t-17 -42v-253q0 -24 17 -41.5t40.5 -17.5t40.5 17.5t17 41.5v253q0 25 -17 42t-40 17zM878 571q-24 0 -41 -17t-17 -42v-253q0 -24 17 -41.5t41 -17.5t40.5 17.5t16.5 41.5v253q0 25 -16.5 42t-40.5 17zM646 808l45 70
q6 8 -2 13.5t-14 -3.5l-25 -39l-11 -17l-11 -16q-54 21 -114 21t-114 -21l-21 33l-26 39q-5 9 -13 3.5t-3 -13.5l45 -70q-62 -30 -99 -82.5t-37 -114.5h536q0 62 -37 114.5t-99 82.5zM399 689q-12 0 -20 9t-8 21t8 20.5t20 8.5t20.5 -8.5t8.5 -20.5t-8.5 -21t-20.5 -9z
M629 689q-12 0 -20.5 9t-8.5 21t8.5 20.5t20.5 8.5t20.5 -8.5t8.5 -20.5t-8.5 -21t-20.5 -9zM629 689z" />
  </font>
</defs>
</svg>
